<svg width="30" height="31" viewBox="0 0 30 31" fill="none" xmlns="http://www.w3.org/2000/svg">
<g clip-path="url(#clip0_61_1033)">
<path d="M15 0.0498047C11 0.0498047 8.49996 3.37455 7.5 10.0238C9 6.69909 10.75 5.45234 12.75 6.28357C13.8911 6.75773 14.7067 8.13403 15.6095 9.65721C17.0802 12.1388 18.7822 15.0108 22.5 15.0108C26.5 15.0108 29 11.6861 30 5.03682C28.5 8.36156 26.75 9.60831 24.75 8.77708C23.6089 8.30292 22.7933 6.92662 21.8905 5.40344C20.4198 2.92182 18.7178 0.0498047 15 0.0498047ZM7.5 15.0108C3.50004 15.0108 0.999961 18.3356 0 24.9849C1.5 21.6601 3.24996 20.4134 5.25 21.2446C6.39105 21.7188 7.20668 23.0951 8.10949 24.6182C9.58019 27.0999 11.2822 29.9719 15 29.9719C19 29.9719 21.5 26.6471 22.5 19.9979C21 23.3226 19.25 24.5693 17.25 23.7381C16.1089 23.264 15.2933 21.8877 14.3905 20.3645C12.9198 17.8829 11.2178 15.0108 7.5 15.0108Z" fill="url(#paint0_linear_61_1033)"/>
</g>
<defs>
<linearGradient id="paint0_linear_61_1033" x1="-0.8334" y1="9.62487" x2="29.9828" y2="20.3135" gradientUnits="userSpaceOnUse">
<stop stop-color="#2298BD"/>
<stop offset="1" stop-color="#0ED7B5"/>
</linearGradient>
<clipPath id="clip0_61_1033">
<rect width="30" height="30" fill="white" transform="translate(0 0.0498047)"/>
</clipPath>
</defs>
</svg>
