<svg width="30" height="30" viewBox="0 0 30 30" fill="none" xmlns="http://www.w3.org/2000/svg">
<g clip-path="url(#clip0_61_1017)">
<path d="M14.9817 29.9242L2.77287 27.5207L0.052124 5.88086H29.9478L27.2243 27.5174L14.9817 29.9242Z" fill="#264DE4"/>
<path d="M24.8926 26.1399L27.22 7.65039H15V28.0847L24.8926 26.1399Z" fill="#2965F1"/>
<path d="M6.2893 15.676L6.62469 18.3301H15V15.676H6.2893ZM5.61523 10.3042L5.95543 12.9582H15V10.3042H5.61523ZM15 22.5689L14.9836 22.572L10.8154 21.7738L10.5489 19.6571H6.79191L7.31621 23.8244L14.9827 25.3335L15 25.3302V22.5689Z" fill="#EBEBEB"/>
<path d="M7.08801 0H11.6208V1.34427H8.98364V2.68853H11.6211V4.03271H7.08801V0ZM12.5275 0H17.0604V1.16892H14.4231V1.40269H17.0604V4.09122H12.5276V2.86371H15.1649V2.62994H12.5274L12.5275 0ZM17.9671 0H22.5V1.16892H19.8627V1.40269H22.5V4.09122H17.9671V2.86371H20.6044V2.62994H17.9672V0H17.9671Z" fill="black"/>
<path d="M23.6867 15.676L24.3623 10.3042H14.9871V12.9582H20.2607L19.9202 15.676H14.9871V18.3301H19.5957L19.1612 21.7722L14.9869 22.5711V25.3323L22.6596 23.8244L22.7158 23.376L23.5954 16.3887L23.6867 15.676Z" fill="white"/>
</g>
<defs>
<clipPath id="clip0_61_1017">
<rect width="30" height="30" fill="white"/>
</clipPath>
</defs>
</svg>
