<svg width="30" height="30" viewBox="0 0 30 30" fill="none" xmlns="http://www.w3.org/2000/svg">
<g clip-path="url(#clip0_63_1786)">
<path d="M14.9818 29.9242L2.77299 27.5207L0.0522461 5.88086H29.9479L27.2244 27.5174L14.9818 29.9242Z" fill="#264DE4"/>
<path d="M24.8926 26.1399L27.22 7.65039H15V28.0847L24.8926 26.1399Z" fill="#2965F1"/>
<path d="M6.2893 15.676L6.62469 18.3301H15V15.676H6.2893ZM5.61523 10.3042L5.95543 12.9582H15V10.3042H5.61523ZM15 22.5689L14.9836 22.572L10.8154 21.7738L10.5489 19.6571H6.79191L7.31621 23.8244L14.9827 25.3335L15 25.3302V22.5689Z" fill="#EBEBEB"/>
<path d="M7.08789 0H11.6207V1.34427H8.98352V2.68853H11.6209V4.03271H7.08789V0ZM12.5274 0H17.0603V1.16892H14.423V1.40269H17.0603V4.09122H12.5275V2.86371H15.1648V2.62994H12.5273L12.5274 0ZM17.967 0H22.4999V1.16892H19.8626V1.40269H22.4999V4.09122H17.967V2.86371H20.6043V2.62994H17.9671V0H17.967Z" fill="black"/>
<path d="M23.6868 15.676L24.3624 10.3042H14.9872V12.9582H20.2608L19.9203 15.676H14.9872V18.3301H19.5958L19.1613 21.7722L14.9871 22.5711V25.3323L22.6597 23.8244L22.7159 23.376L23.5955 16.3887L23.6868 15.676Z" fill="white"/>
</g>
<defs>
<clipPath id="clip0_63_1786">
<rect width="30" height="30" fill="white"/>
</clipPath>
</defs>
</svg>
