<svg width="30" height="30" viewBox="0 0 30 30" fill="none" xmlns="http://www.w3.org/2000/svg">
<g clip-path="url(#clip0_57_404)">
<path d="M29.9479 5.88086L27.2243 27.5174L14.9817 29.9242L2.7729 27.5207L0.0521545 5.88086H29.9479Z" fill="#E44D26"/>
<path d="M15 28.0847L24.8926 26.1399L27.22 7.65039H15V28.0847Z" fill="#F16529"/>
<path d="M9.70546 12.9582H15V10.3042H5.61526L5.7048 11.0162L6.62472 18.3301H15V15.676H10.0475L9.70546 12.9582ZM10.549 19.6571H6.79194L7.31624 23.8244L14.9828 25.3335L15 25.3302V22.5689L14.9836 22.572L10.8155 21.7738L10.549 19.6571Z" fill="#EBEBEB"/>
<path d="M2.83359 0H4.73554V1.33255H6.47542V0H8.37749V4.03529H6.47554V2.68404H4.73566V4.03529H2.8337L2.83359 0ZM10.8785 1.3382H9.20437V0H14.456V1.3382H12.7808V4.03529H10.8789V1.3382H10.8785ZM15.2894 0H17.2726L18.4925 1.41789L19.7113 0H21.6953V4.03529H19.8011V2.03518L18.4925 3.46994H18.4597L17.1504 2.03518V4.03529H15.2894V0ZM22.6418 0H24.5443V2.7015H27.219V4.03529H22.6417V0H22.6418Z" fill="black"/>
<path d="M14.9871 18.3301H19.5957L19.1612 21.7722L14.987 22.5711V25.3323L22.6596 23.8244L22.7159 23.376L23.5955 16.3887L23.6868 15.676H14.9871V18.3301ZM14.9871 12.9518V12.9582H24.0273L24.1023 12.3617L24.2729 11.0162L24.3624 10.3042H14.9871V12.9518Z" fill="white"/>
</g>
<defs>
<clipPath id="clip0_57_404">
<rect width="30" height="30" fill="white"/>
</clipPath>
</defs>
</svg>
