<svg width="30" height="31" viewBox="0 0 30 31" fill="none" xmlns="http://www.w3.org/2000/svg">
<g clip-path="url(#clip0_63_1832)">
<path d="M0 0.0200195H30V30.02H0V0.0200195Z" fill="#F7DF1E"/>
<path d="M7.88806 25.0903L10.1838 23.7009C10.6267 24.4862 11.0296 25.1507 11.9961 25.1507C12.9224 25.1507 13.5066 24.7883 13.5066 23.3788V13.7931H16.3258V23.4186C16.3258 26.3386 14.6142 27.6677 12.1169 27.6677C9.86161 27.6677 8.55251 26.4997 7.88794 25.0901M17.8571 24.7882L20.1525 23.4592C20.7569 24.446 21.5423 25.1709 22.9317 25.1709C24.0999 25.1709 24.8447 24.5869 24.8447 23.7813C24.8447 22.8148 24.0795 22.4723 22.7907 21.9087L22.086 21.6063C20.052 20.7407 18.7028 19.6532 18.7028 17.3575C18.7028 15.2429 20.3138 13.6318 22.8311 13.6318C24.6234 13.6318 25.9122 14.2562 26.8384 15.8873L24.6433 17.2971C24.1599 16.4312 23.6365 16.0889 22.831 16.0889C22.0053 16.0889 21.4817 16.6125 21.4817 17.2971C21.4817 18.1429 22.0053 18.4854 23.2135 19.009L23.9183 19.311C26.3147 20.3381 27.6639 21.3852 27.6639 23.7411C27.6639 26.2787 25.6703 27.6681 22.992 27.6681C20.3742 27.6681 18.6826 26.4196 17.857 24.7883" fill="black"/>
</g>
<defs>
<clipPath id="clip0_63_1832">
<rect width="30" height="30" fill="white" transform="translate(0 0.0200195)"/>
</clipPath>
</defs>
</svg>
