<svg width="30" height="31" viewBox="0 0 30 31" fill="none" xmlns="http://www.w3.org/2000/svg">
<path d="M15 18.8203L20 13.8203H10L15 18.8203ZM15 27.5703C13.2708 27.5703 11.6458 27.242 10.125 26.5853C8.60417 25.9295 7.28125 25.0391 6.15625 23.9141C5.03125 22.7891 4.14083 21.4661 3.485 19.9453C2.82833 18.4245 2.5 16.7995 2.5 15.0703C2.5 13.3411 2.82833 11.7161 3.485 10.1953C4.14083 8.67448 5.03125 7.35156 6.15625 6.22656C7.28125 5.10156 8.60417 4.21073 10.125 3.55406C11.6458 2.89823 13.2708 2.57031 15 2.57031C16.7292 2.57031 18.3542 2.89823 19.875 3.55406C21.3958 4.21073 22.7188 5.10156 23.8438 6.22656C24.9688 7.35156 25.8592 8.67448 26.515 10.1953C27.1717 11.7161 27.5 13.3411 27.5 15.0703C27.5 16.7995 27.1717 18.4245 26.515 19.9453C25.8592 21.4661 24.9688 22.7891 23.8438 23.9141C22.7188 25.0391 21.3958 25.9295 19.875 26.5853C18.3542 27.242 16.7292 27.5703 15 27.5703Z" fill="black"/>
</svg>
