<svg width="30" height="31" viewBox="0 0 30 31" fill="none" xmlns="http://www.w3.org/2000/svg">
<path d="M15 18.7803L20 13.7803H10L15 18.7803ZM15 27.5303C13.2708 27.5303 11.6458 27.2019 10.125 26.5453C8.60417 25.8894 7.28125 24.999 6.15625 23.874C5.03125 22.749 4.14083 21.4261 3.485 19.9053C2.82833 18.3844 2.5 16.7594 2.5 15.0303C2.5 13.3011 2.82833 11.6761 3.485 10.1553C4.14083 8.63444 5.03125 7.31152 6.15625 6.18652C7.28125 5.06152 8.60417 4.17069 10.125 3.51402C11.6458 2.85819 13.2708 2.53027 15 2.53027C16.7292 2.53027 18.3542 2.85819 19.875 3.51402C21.3958 4.17069 22.7188 5.06152 23.8438 6.18652C24.9688 7.31152 25.8592 8.63444 26.515 10.1553C27.1717 11.6761 27.5 13.3011 27.5 15.0303C27.5 16.7594 27.1717 18.3844 26.515 19.9053C25.8592 21.4261 24.9688 22.749 23.8438 23.874C22.7188 24.999 21.3958 25.8894 19.875 26.5453C18.3542 27.2019 16.7292 27.5303 15 27.5303Z" fill="black"/>
</svg>
