<svg width="56" height="55" viewBox="0 0 56 55" fill="none" xmlns="http://www.w3.org/2000/svg">
<path d="M28 0.5C24.3886 0.5 20.8127 1.21131 17.4762 2.59331C14.1398 3.97532 11.1082 6.00095 8.55456 8.55456C3.39731 13.7118 0.5 20.7065 0.5 28C0.5 40.155 8.3925 50.4675 19.31 54.125C20.685 54.345 21.125 53.4925 21.125 52.75V48.1025C13.5075 49.7525 11.885 44.4175 11.885 44.4175C10.62 41.2275 8.8325 40.375 8.8325 40.375C6.33 38.67 9.025 38.725 9.025 38.725C11.775 38.9175 13.2325 41.5575 13.2325 41.5575C15.625 45.7375 19.6675 44.5 21.235 43.84C21.4825 42.0525 22.1975 40.8425 22.9675 40.155C16.8625 39.4675 10.455 37.1025 10.455 26.625C10.455 23.5725 11.5 21.125 13.2875 19.1725C13.0125 18.485 12.05 15.625 13.5625 11.9125C13.5625 11.9125 15.8725 11.17 21.125 14.7175C23.2975 14.1125 25.6625 13.81 28 13.81C30.3375 13.81 32.7025 14.1125 34.875 14.7175C40.1275 11.17 42.4375 11.9125 42.4375 11.9125C43.95 15.625 42.9875 18.485 42.7125 19.1725C44.5 21.125 45.545 23.5725 45.545 26.625C45.545 37.13 39.11 39.44 32.9775 40.1275C33.9675 40.98 34.875 42.6575 34.875 45.215V52.75C34.875 53.4925 35.315 54.3725 36.7175 54.125C47.635 50.44 55.5 40.155 55.5 28C55.5 24.3886 54.7887 20.8127 53.4067 17.4762C52.0247 14.1398 49.999 11.1082 47.4454 8.55456C44.8918 6.00095 41.8602 3.97532 38.5238 2.59331C35.1873 1.21131 31.6114 0.5 28 0.5Z" fill="black"/>
</svg>
