<svg width="66" height="66" viewBox="0 0 66 66" fill="none" xmlns="http://www.w3.org/2000/svg">
<path d="M56.2346 56.2355H46.4555V40.9207C46.4555 37.2688 46.3903 32.5676 41.3694 32.5676C36.2761 32.5676 35.4967 36.5467 35.4967 40.6549V56.2345H25.7179V24.7412H35.1056V29.0451H35.2371C36.1766 27.4387 37.5342 26.1171 39.1653 25.2213C40.7965 24.3254 42.6401 23.8887 44.4998 23.9577C54.4114 23.9577 56.2388 30.4772 56.2388 38.9588L56.2346 56.2355ZM14.6835 20.4365C11.5493 20.437 9.00802 17.8965 9.0075 14.7623C9.00699 11.6281 11.5472 9.08679 14.6814 9.08628C17.8157 9.0855 20.3569 11.626 20.3574 14.7602C20.3577 16.2653 19.7601 17.7089 18.696 18.7734C17.632 19.8379 16.1886 20.4361 14.6835 20.4365ZM19.5732 56.2358H9.78378V24.7412H19.5729V56.2355L19.5732 56.2358ZM61.1099 0.00431525H4.86987C2.21182 -0.025591 0.032019 2.10368 -0.000465393 4.76173V61.2363C0.0309877 63.8957 2.21053 66.027 4.86961 65.9992H61.1099C63.7746 66.0322 65.9627 63.9008 65.9995 61.2363V4.75735C65.9616 2.09414 63.7733 -0.0348722 61.1099 -6.7559e-05" fill="#0A66C2"/>
</svg>
