<svg width="32" height="33" viewBox="0 0 32 33" fill="none" xmlns="http://www.w3.org/2000/svg">
<path d="M16 18.5444C17.3807 18.5444 18.5 17.4251 18.5 16.0444C18.5 14.6637 17.3807 13.5444 16 13.5444C14.6193 13.5444 13.5 14.6637 13.5 16.0444C13.5 17.4251 14.6193 18.5444 16 18.5444Z" fill="#00D8FF"/>
<path d="M16 21.7761C12.9951 21.8488 9.9978 21.4437 7.12 20.5761C5.79062 20.1547 4.55073 19.4908 3.463 18.6181C3.04793 18.3199 2.70227 17.9355 2.44974 17.4912C2.19721 17.0469 2.04379 16.5533 2 16.0441C2 14.3911 3.816 12.7711 6.858 11.7111C9.81273 10.7718 12.8999 10.3166 16 10.3631C19.0587 10.3204 22.1045 10.7673 25.022 11.6871C26.3023 12.0952 27.5001 12.727 28.56 13.5531C28.968 13.8373 29.3084 14.2078 29.5573 14.6383C29.8061 15.0688 29.9573 15.5487 30 16.0441C30 17.7621 27.97 19.5031 24.7 20.5851C21.8779 21.4245 18.9438 21.8261 16 21.7761ZM16 11.5591C13.0341 11.5194 10.0808 11.9522 7.251 12.8411C4.451 13.8181 3.196 15.1541 3.196 16.0411C3.196 16.9691 4.545 18.4281 7.507 19.4411C10.2601 20.2669 13.1266 20.6514 16 20.5801C18.8164 20.6305 21.6239 20.2494 24.325 19.4501C27.4 18.4311 28.8 16.9701 28.8 16.0441C28.7495 15.7263 28.6337 15.4225 28.4599 15.1517C28.2861 14.881 28.058 14.6492 27.79 14.4711C26.8418 13.7382 25.7717 13.1783 24.629 12.8171C21.838 11.9408 18.925 11.5162 16 11.5591Z" fill="#00D8FF"/>
<path d="M10.32 28.5133C9.85348 28.524 9.39248 28.4108 8.98398 28.1853C7.55198 27.3593 7.05598 24.9773 7.65698 21.8123C8.31962 18.7834 9.46778 15.8816 11.057 13.2193C12.5477 10.5484 14.4562 8.1332 16.71 6.06529C17.7031 5.15999 18.8488 4.43783 20.094 3.93229C20.5443 3.72122 21.0356 3.61182 21.533 3.61182C22.0303 3.61182 22.5216 3.72122 22.972 3.93229C24.461 4.79029 24.954 7.41829 24.259 10.7913C23.5759 13.6558 22.4575 16.3987 20.943 18.9243C19.5047 21.5636 17.6563 23.9578 15.467 26.0173C14.4378 26.9581 13.2433 27.7002 11.944 28.2063C11.4238 28.3994 10.8747 28.5031 10.32 28.5133ZM12.093 13.8133C10.5771 16.3626 9.47664 19.137 8.83298 22.0323C8.27998 24.9473 8.81098 26.7003 9.58298 27.1463C10.383 27.6093 12.325 27.1703 14.683 25.1103C16.773 23.1372 18.5372 20.8455 19.91 18.3203C21.3609 15.9058 22.4337 13.2834 23.091 10.5443C23.745 7.36929 23.18 5.42529 22.378 4.96329C22.0774 4.84811 21.7562 4.79656 21.4346 4.81187C21.1131 4.82719 20.7983 4.90906 20.51 5.05229C19.4017 5.50963 18.3827 6.15892 17.5 6.97029C15.3466 8.95107 13.5237 11.2632 12.1 13.8193L12.093 13.8133Z" fill="#00D8FF"/>
<path d="M21.677 28.5263C20.322 28.5263 18.601 27.7063 16.809 26.1653C14.5157 24.0786 12.575 21.6347 11.062 18.9283C9.49278 16.3026 8.35371 13.4428 7.68805 10.4573C7.39935 9.14378 7.34586 7.78948 7.53005 6.45729C7.57263 5.9631 7.72311 5.48426 7.97088 5.05455C8.21865 4.62484 8.55767 4.25472 8.96404 3.97029C10.451 3.10929 12.974 3.99429 15.549 6.28029C17.6896 8.30248 19.5074 10.641 20.939 13.2143C22.5073 15.7786 23.6583 18.5758 24.349 21.5013C24.6502 22.863 24.6966 24.2687 24.486 25.6473C24.4359 26.1557 24.2765 26.6473 24.0186 27.0883C23.7607 27.5293 23.4106 27.9093 22.992 28.2023C22.5902 28.425 22.1364 28.5368 21.677 28.5263ZM12.097 18.3263C13.5485 20.9127 15.4023 23.2516 17.589 25.2553C19.838 27.1903 21.622 27.6063 22.389 27.1553C23.189 26.6903 23.779 24.7923 23.171 21.7213C22.5049 18.9282 21.4009 16.2582 19.9 13.8103C18.5339 11.3474 16.7988 9.10815 14.755 7.17029C12.331 5.01829 10.365 4.53729 9.56404 5.00129C9.31439 5.20417 9.10951 5.45661 8.96235 5.74268C8.81519 6.02874 8.72894 6.34221 8.70904 6.66329C8.55005 7.85138 8.60184 9.0582 8.86205 10.2283C9.50235 13.0834 10.5948 15.8179 12.098 18.3283L12.097 18.3263Z" fill="#00D8FF"/>
</svg>
