<svg width="30" height="31" viewBox="0 0 30 31" fill="none" xmlns="http://www.w3.org/2000/svg">
<g clip-path="url('#clip0_59_677')">
<path d="M15 0.00976562C11 0.00976562 8.49996 3.33451 7.5 9.98379C9 6.65905 10.75 5.4123 12.75 6.24353C13.8911 6.71769 14.7067 8.09399 15.6095 9.61717C17.0802 12.0988 18.7822 14.9708 22.5 14.9708C26.5 14.9708 29 11.6461 30 4.99678C28.5 8.32152 26.75 9.56827 24.75 8.73704C23.6089 8.26288 22.7933 6.88658 21.8905 5.3634C20.4198 2.88178 18.7178 0.00976562 15 0.00976562ZM7.5 14.9708C3.50004 14.9708 0.999961 18.2955 0 24.9448C1.5 21.6201 3.24996 20.3733 5.25 21.2046C6.39105 21.6787 7.20668 23.055 8.10949 24.5782C9.58019 27.0598 11.2822 29.9318 15 29.9318C19 29.9318 21.5 26.6071 22.5 19.9578C21 23.2826 19.25 24.5293 17.25 23.6981C16.1089 23.2239 15.2933 21.8476 14.3905 20.3244C12.9198 17.8428 11.2178 14.9708 7.5 14.9708Z" fill="url('#paint0_linear_59_677')"></path>
</g>
<defs>
<linearGradient id="paint0_linear_59_677" x1="-0.8334" y1="9.58483" x2="29.9828" y2="20.2735" gradientUnits="userSpaceOnUse">
<stop stop-color="#2298BD"></stop>
<stop offset="1" stop-color="#0ED7B5"></stop>
</linearGradient>
<clipPath id="clip0_59_677">
<rect width="30" height="30" fill="white" transform="translate(0 0.00976562)"></rect>
</clipPath>
</defs>
</svg>
