<svg width="30" height="31" viewBox="0 0 30 31" fill="none" xmlns="http://www.w3.org/2000/svg">
<g clip-path="url('#clip0_59_775')">
<path d="M0 0.0200195H30V30.02H0V0.0200195Z" fill="#F7DF1E"></path>
<path d="M7.88812 25.0903L10.1838 23.7009C10.6268 24.4862 11.0297 25.1507 11.9961 25.1507C12.9225 25.1507 13.5067 24.7883 13.5067 23.3788V13.7931H16.3259V23.4186C16.3259 26.3386 14.6142 27.6677 12.1169 27.6677C9.86167 27.6677 8.55257 26.4997 7.888 25.0901M17.8571 24.7882L20.1526 23.4592C20.7569 24.446 21.5423 25.1709 22.9317 25.1709C24.1 25.1709 24.8448 24.5869 24.8448 23.7813C24.8448 22.8148 24.0796 22.4723 22.7907 21.9087L22.0861 21.6063C20.0521 20.7407 18.7029 19.6532 18.7029 17.3575C18.7029 15.2429 20.3139 13.6318 22.8312 13.6318C24.6234 13.6318 25.9123 14.2562 26.8385 15.8873L24.6434 17.2971C24.16 16.4312 23.6366 16.0889 22.831 16.0889C22.0053 16.0889 21.4818 16.6125 21.4818 17.2971C21.4818 18.1429 22.0053 18.4854 23.2136 19.009L23.9183 19.311C26.3148 20.3381 27.664 21.3852 27.664 23.7411C27.664 26.2787 25.6704 27.6681 22.9921 27.6681C20.3742 27.6681 18.6826 26.4196 17.857 24.7883" fill="black"></path>
</g>
<defs>
<clipPath id="clip0_59_775">
<rect width="30" height="30" fill="white" transform="translate(0 0.0200195)"></rect>
</clipPath>
</defs>
</svg>
