<svg width="30" height="30" viewBox="0 0 30 30" fill="none" xmlns="http://www.w3.org/2000/svg">
<g clip-path="url('#clip0_57_412')">
<path d="M14.9817 29.9242L2.7729 27.5207L0.0521545 5.88086H29.9479L27.2243 27.5174L14.9817 29.9242Z" fill="#264DE4"></path>
<path d="M24.8926 26.1399L27.22 7.65039H15V28.0847L24.8926 26.1399Z" fill="#2965F1"></path>
<path d="M6.28933 15.676L6.62472 18.3301H15V15.676H6.28933ZM5.61526 10.3042L5.95546 12.9582H15V10.3042H5.61526ZM15 22.5689L14.9836 22.572L10.8155 21.7738L10.549 19.6571H6.79194L7.31624 23.8244L14.9828 25.3335L15 25.3302V22.5689Z" fill="#EBEBEB"></path>
<path d="M7.08798 0H11.6208V1.34427H8.98361V2.68853H11.621V4.03271H7.08798V0ZM12.5275 0H17.0604V1.16892H14.4231V1.40269H17.0604V4.09122H12.5276V2.86371H15.1649V2.62994H12.5274L12.5275 0ZM17.9671 0H22.5V1.16892H19.8627V1.40269H22.5V4.09122H17.9671V2.86371H20.6044V2.62994H17.9672V0H17.9671Z" fill="black"></path>
<path d="M23.6868 15.676L24.3624 10.3042H14.9871V12.9582H20.2608L19.9202 15.676H14.9871V18.3301H19.5957L19.1612 21.7722L14.987 22.5711V25.3323L22.6596 23.8244L22.7159 23.376L23.5955 16.3887L23.6868 15.676Z" fill="white"></path>
</g>
<defs>
<clipPath id="clip0_57_412">
<rect width="30" height="30" fill="white"></rect>
</clipPath>
</defs>
</svg>
