<svg width="30" height="31" viewBox="0 0 30 31" fill="none" xmlns="http://www.w3.org/2000/svg">
<g clip-path="url('#clip0_61_1046')">
<path d="M0 0.0600586H30V30.0601H0V0.0600586Z" fill="#F7DF1E"></path>
<path d="M7.88818 25.1304L10.1839 23.741C10.6269 24.5263 11.0297 25.1907 11.9962 25.1907C12.9226 25.1907 13.5067 24.8284 13.5067 23.4188V13.8331H16.3259V23.4587C16.3259 26.3786 14.6143 27.7078 12.117 27.7078C9.86173 27.7078 8.55263 26.5398 7.88806 25.1301M17.8572 24.8282L20.1527 23.4992C20.757 24.4861 21.5424 25.211 22.9318 25.211C24.1 25.211 24.8449 24.6269 24.8449 23.8214C24.8449 22.8548 24.0796 22.5124 22.7908 21.9487L22.0861 21.6464C20.0521 20.7807 18.7029 19.6932 18.7029 17.3975C18.7029 15.283 20.3139 13.6719 22.8312 13.6719C24.6235 13.6719 25.9123 14.2962 26.8386 15.9274L24.6434 17.3371C24.16 16.4712 23.6367 16.1289 22.8311 16.1289C22.0054 16.1289 21.4818 16.6525 21.4818 17.3371C21.4818 18.1829 22.0054 18.5254 23.2136 19.049L23.9184 19.351C26.3149 20.3782 27.664 21.4252 27.664 23.7812C27.664 26.3188 25.6704 27.7081 22.9921 27.7081C20.3743 27.7081 18.6827 26.4596 17.8571 24.8284" fill="black"></path>
</g>
<defs>
<clipPath id="clip0_61_1046">
<rect width="30" height="30" fill="white" transform="translate(0 0.0600586)"></rect>
</clipPath>
</defs>
</svg>
