<svg width="30" height="31" viewBox="0 0 30 31" fill="none" xmlns="http://www.w3.org/2000/svg">
<path d="M15 18.77L20 13.77H10L15 18.77ZM15 27.52C13.2708 27.52 11.6458 27.1917 10.125 26.535C8.60417 25.8792 7.28125 24.9888 6.15625 23.8638C5.03125 22.7388 4.14083 21.4159 3.485 19.895C2.82833 18.3742 2.5 16.7492 2.5 15.02C2.5 13.2909 2.82833 11.6659 3.485 10.145C4.14083 8.62419 5.03125 7.30127 6.15625 6.17627C7.28125 5.05127 8.60417 4.16044 10.125 3.50377C11.6458 2.84794 13.2708 2.52002 15 2.52002C16.7292 2.52002 18.3542 2.84794 19.875 3.50377C21.3958 4.16044 22.7188 5.05127 23.8438 6.17627C24.9688 7.30127 25.8592 8.62419 26.515 10.145C27.1717 11.6659 27.5 13.2909 27.5 15.02C27.5 16.7492 27.1717 18.3742 26.515 19.895C25.8592 21.4159 24.9688 22.7388 23.8438 23.8638C22.7188 24.9888 21.3958 25.8792 19.875 26.535C18.3542 27.1917 16.7292 27.52 15 27.52Z" fill="black"></path>
</svg>
