<svg width="30" height="31" viewBox="0 0 30 31" fill="none" xmlns="http://www.w3.org/2000/svg">
<path d="M15 18.7998L20 13.7998H10L15 18.7998ZM15 27.5498C13.2708 27.5498 11.6458 27.2215 10.125 26.5648C8.60417 25.909 7.28125 25.0186 6.15625 23.8936C5.03125 22.7686 4.14083 21.4456 3.485 19.9248C2.82833 18.404 2.5 16.779 2.5 15.0498C2.5 13.3206 2.82833 11.6956 3.485 10.1748C4.14083 8.65397 5.03125 7.33105 6.15625 6.20605C7.28125 5.08105 8.60417 4.19022 10.125 3.53355C11.6458 2.87772 13.2708 2.5498 15 2.5498C16.7292 2.5498 18.3542 2.87772 19.875 3.53355C21.3958 4.19022 22.7188 5.08105 23.8438 6.20605C24.9688 7.33105 25.8592 8.65397 26.515 10.1748C27.1717 11.6956 27.5 13.3206 27.5 15.0498C27.5 16.779 27.1717 18.404 26.515 19.9248C25.8592 21.4456 24.9688 22.7686 23.8438 23.8936C22.7188 25.0186 21.3958 25.909 19.875 26.5648C18.3542 27.2215 16.7292 27.5498 15 27.5498Z" fill="black"></path>
</svg>
