<svg width="30" height="31" viewBox="0 0 30 31" fill="none" xmlns="http://www.w3.org/2000/svg">
<path d="M15 18.7598L20 13.7598H10L15 18.7598ZM15 27.5098C13.2708 27.5098 11.6458 27.1814 10.125 26.5248C8.60417 25.8689 7.28125 24.9785 6.15625 23.8535C5.03125 22.7285 4.14083 21.4056 3.485 19.8848C2.82833 18.3639 2.5 16.7389 2.5 15.0098C2.5 13.2806 2.82833 11.6556 3.485 10.1348C4.14083 8.61393 5.03125 7.29102 6.15625 6.16602C7.28125 5.04102 8.60417 4.15018 10.125 3.49352C11.6458 2.83768 13.2708 2.50977 15 2.50977C16.7292 2.50977 18.3542 2.83768 19.875 3.49352C21.3958 4.15018 22.7188 5.04102 23.8438 6.16602C24.9688 7.29102 25.8592 8.61393 26.515 10.1348C27.1717 11.6556 27.5 13.2806 27.5 15.0098C27.5 16.7389 27.1717 18.3639 26.515 19.8848C25.8592 21.4056 24.9688 22.7285 23.8438 23.8535C22.7188 24.9785 21.3958 25.8689 19.875 26.5248C18.3542 27.1814 16.7292 27.5098 15 27.5098Z" fill="black"></path>
</svg>
