<svg width="30" height="31" viewBox="0 0 30 31" fill="none" xmlns="http://www.w3.org/2000/svg">
<path d="M15 18.8101L20 13.8101H10L15 18.8101ZM15 27.5601C13.2708 27.5601 11.6458 27.2317 10.125 26.5751C8.60417 25.9192 7.28125 25.0288 6.15625 23.9038C5.03125 22.7788 4.14083 21.4559 3.485 19.9351C2.82833 18.4142 2.5 16.7892 2.5 15.0601C2.5 13.3309 2.82833 11.7059 3.485 10.1851C4.14083 8.66423 5.03125 7.34131 6.15625 6.21631C7.28125 5.09131 8.60417 4.20048 10.125 3.54381C11.6458 2.88798 13.2708 2.56006 15 2.56006C16.7292 2.56006 18.3542 2.88798 19.875 3.54381C21.3958 4.20048 22.7188 5.09131 23.8438 6.21631C24.9688 7.34131 25.8592 8.66423 26.515 10.1851C27.1717 11.7059 27.5 13.3309 27.5 15.0601C27.5 16.7892 27.1717 18.4142 26.515 19.9351C25.8592 21.4559 24.9688 22.7788 23.8438 23.9038C22.7188 25.0288 21.3958 25.9192 19.875 26.5751C18.3542 27.2317 16.7292 27.5601 15 27.5601Z" fill="black"></path>
</svg>
