<svg width="32" height="33" viewBox="0 0 32 33" fill="none" xmlns="http://www.w3.org/2000/svg">
<path d="M16 18.5044C17.3807 18.5044 18.5 17.3851 18.5 16.0044C18.5 14.6237 17.3807 13.5044 16 13.5044C14.6193 13.5044 13.5 14.6237 13.5 16.0044C13.5 17.3851 14.6193 18.5044 16 18.5044Z" fill="#00D8FF"></path>
<path d="M16 21.7361C12.9951 21.8087 9.9978 21.4037 7.12 20.5361C5.79062 20.1146 4.55073 19.4508 3.463 18.5781C3.04793 18.2799 2.70227 17.8955 2.44974 17.4512C2.19721 17.0069 2.04379 16.5132 2 16.0041C2 14.3511 3.816 12.7311 6.858 11.6711C9.81273 10.7318 12.8999 10.2766 16 10.3231C19.0587 10.2803 22.1045 10.7273 25.022 11.6471C26.3023 12.0552 27.5001 12.687 28.56 13.5131C28.968 13.7973 29.3084 14.1678 29.5573 14.5983C29.8061 15.0287 29.9573 15.5087 30 16.0041C30 17.7221 27.97 19.4631 24.7 20.5451C21.8779 21.3844 18.9438 21.7861 16 21.7361ZM16 11.5191C13.0341 11.4794 10.0808 11.9122 7.251 12.8011C4.451 13.7781 3.196 15.1141 3.196 16.0011C3.196 16.9291 4.545 18.3881 7.507 19.4011C10.2601 20.2269 13.1266 20.6113 16 20.5401C18.8164 20.5904 21.6239 20.2093 24.325 19.4101C27.4 18.3911 28.8 16.9301 28.8 16.0041C28.7495 15.6863 28.6337 15.3824 28.4599 15.1117C28.2861 14.8409 28.058 14.6092 27.79 14.4311C26.8418 13.6982 25.7717 13.1383 24.629 12.7771C21.838 11.9008 18.925 11.4761 16 11.5191Z" fill="#00D8FF"></path>
<path d="M10.32 28.4732C9.85351 28.484 9.39251 28.3708 8.98401 28.1452C7.55201 27.3192 7.05601 24.9372 7.65701 21.7722C8.31965 18.7433 9.46781 15.8415 11.057 13.1792C12.5477 10.5084 14.4562 8.09316 16.71 6.02525C17.7032 5.11995 18.8489 4.39779 20.094 3.89225C20.5444 3.68119 21.0356 3.57178 21.533 3.57178C22.0304 3.57178 22.5216 3.68119 22.972 3.89225C24.461 4.75025 24.954 7.37825 24.259 10.7512C23.5759 13.6158 22.4576 16.3587 20.943 18.8842C19.5047 21.5236 17.6564 23.9178 15.467 25.9772C14.4378 26.918 13.2433 27.6602 11.944 28.1662C11.4238 28.3593 10.8748 28.4631 10.32 28.4732ZM12.093 13.7732C10.5771 16.3226 9.47667 19.097 8.83301 21.9922C8.28001 24.9072 8.81101 26.6602 9.58301 27.1062C10.383 27.5692 12.325 27.1302 14.683 25.0702C16.773 23.0972 18.5372 20.8055 19.91 18.2802C21.3609 15.8658 22.4337 13.2434 23.091 10.5042C23.745 7.32925 23.18 5.38525 22.378 4.92325C22.0774 4.80807 21.7562 4.75652 21.4347 4.77184C21.1131 4.78715 20.7983 4.86902 20.51 5.01225C19.4017 5.46959 18.3827 6.11888 17.5 6.93025C15.3467 8.91103 13.5237 11.2232 12.1 13.7792L12.093 13.7732Z" fill="#00D8FF"></path>
<path d="M21.677 28.4863C20.322 28.4863 18.601 27.6663 16.809 26.1253C14.5157 24.0385 12.575 21.5946 11.062 18.8883C9.49275 16.2626 8.35368 13.4028 7.68801 10.4173C7.39932 9.10374 7.34583 7.74944 7.53001 6.41725C7.5726 5.92306 7.72308 5.44422 7.97085 5.01452C8.21862 4.58481 8.55764 4.21468 8.96401 3.93025C10.451 3.06925 12.974 3.95425 15.549 6.24025C17.6896 8.26244 19.5074 10.601 20.939 13.1743C22.5073 15.7386 23.6583 18.5358 24.349 21.4613C24.6501 22.823 24.6966 24.2286 24.486 25.6073C24.4359 26.1157 24.2765 26.6072 24.0186 27.0482C23.7607 27.4892 23.4105 27.8693 22.992 28.1623C22.5902 28.385 22.1363 28.4968 21.677 28.4863ZM12.097 18.2863C13.5484 20.8727 15.4023 23.2116 17.589 25.2153C19.838 27.1503 21.622 27.5663 22.389 27.1153C23.189 26.6503 23.779 24.7523 23.171 21.6813C22.5049 18.8882 21.4009 16.2182 19.9 13.7703C18.5338 11.3074 16.7988 9.06811 14.755 7.13025C12.331 4.97825 10.365 4.49725 9.56401 4.96125C9.31436 5.16413 9.10948 5.41658 8.96232 5.70264C8.81516 5.9887 8.72891 6.30217 8.70901 6.62325C8.55002 7.81134 8.60181 9.01816 8.86201 10.1883C9.50232 13.0434 10.5948 15.7779 12.098 18.2883L12.097 18.2863Z" fill="#00D8FF"></path>
</svg>
