<svg width="32" height="33" viewBox="0 0 32 33" fill="none" xmlns="http://www.w3.org/2000/svg">
<path d="M16 18.5342C17.3807 18.5342 18.5 17.4149 18.5 16.0342C18.5 14.6535 17.3807 13.5342 16 13.5342C14.6193 13.5342 13.5 14.6535 13.5 16.0342C13.5 17.4149 14.6193 18.5342 16 18.5342Z" fill="#00D8FF"></path>
<path d="M16 21.7658C12.9951 21.8385 9.9978 21.4335 7.12 20.5658C5.79062 20.1444 4.55073 19.4806 3.463 18.6078C3.04793 18.3097 2.70227 17.9253 2.44974 17.481C2.19721 17.0367 2.04379 16.543 2 16.0338C2 14.3808 3.816 12.7608 6.858 11.7008C9.81273 10.7616 12.8999 10.3064 16 10.3528C19.0587 10.3101 22.1045 10.7571 25.022 11.6768C26.3023 12.085 27.5001 12.7168 28.56 13.5428C28.968 13.8271 29.3084 14.1976 29.5573 14.628C29.8061 15.0585 29.9573 15.5384 30 16.0338C30 17.7518 27.97 19.4928 24.7 20.5748C21.8779 21.4142 18.9438 21.8159 16 21.7658ZM16 11.5488C13.0341 11.5092 10.0808 11.9419 7.251 12.8308C4.451 13.8078 3.196 15.1438 3.196 16.0308C3.196 16.9588 4.545 18.4178 7.507 19.4308C10.2601 20.2567 13.1266 20.6411 16 20.5698C18.8164 20.6202 21.6239 20.2391 24.325 19.4398C27.4 18.4208 28.8 16.9598 28.8 16.0338C28.7495 15.7161 28.6337 15.4122 28.4599 15.1415C28.2861 14.8707 28.058 14.639 27.79 14.4608C26.8418 13.728 25.7717 13.1681 24.629 12.8068C21.838 11.9306 18.925 11.5059 16 11.5488Z" fill="#00D8FF"></path>
<path d="M10.3201 28.503C9.8536 28.5137 9.3926 28.4006 8.9841 28.175C7.5521 27.349 7.0561 24.967 7.6571 21.802C8.31974 18.7731 9.4679 15.8713 11.0571 13.209C12.5478 10.5381 14.4563 8.12295 16.7101 6.05503C17.7033 5.14974 18.849 4.42757 20.0941 3.92203C20.5445 3.71097 21.0357 3.60156 21.5331 3.60156C22.0305 3.60156 22.5217 3.71097 22.9721 3.92203C24.4611 4.78003 24.9541 7.40803 24.2591 10.781C23.576 13.6456 22.4577 16.3885 20.9431 18.914C19.5048 21.5534 17.6565 23.9475 15.4671 26.007C14.4379 26.9478 13.2434 27.69 11.9441 28.196C11.4239 28.3891 10.8749 28.4929 10.3201 28.503ZM12.0931 13.803C10.5772 16.3524 9.47676 19.1267 8.8331 22.022C8.2801 24.937 8.8111 26.69 9.5831 27.136C10.3831 27.599 12.3251 27.16 14.6831 25.1C16.7731 23.127 18.5373 20.8352 19.9101 18.31C21.361 15.8955 22.4338 13.2732 23.0911 10.534C23.7451 7.35903 23.1801 5.41503 22.3781 4.95303C22.0775 4.83786 21.7563 4.7863 21.4348 4.80162C21.1132 4.81694 20.7984 4.8988 20.5101 5.04203C19.4018 5.49938 18.3828 6.14866 17.5001 6.96003C15.3468 8.94082 13.5238 11.253 12.1001 13.809L12.0931 13.803Z" fill="#00D8FF"></path>
<path d="M21.677 28.516C20.322 28.516 18.601 27.696 16.809 26.155C14.5157 24.0683 12.575 21.6244 11.062 18.918C9.49278 16.2924 8.35371 13.4326 7.68805 10.447C7.39935 9.13352 7.34586 7.77923 7.53005 6.44704C7.57263 5.95284 7.72311 5.47401 7.97088 5.0443C8.21865 4.61459 8.55767 4.24447 8.96404 3.96004C10.451 3.09904 12.974 3.98404 15.549 6.27004C17.6896 8.29222 19.5074 10.6307 20.939 13.204C22.5073 15.7684 23.6583 18.5656 24.349 21.491C24.6502 22.8527 24.6966 24.2584 24.486 25.637C24.4359 26.1454 24.2765 26.637 24.0186 27.078C23.7607 27.519 23.4106 27.8991 22.992 28.192C22.5902 28.4148 22.1364 28.5266 21.677 28.516ZM12.097 18.316C13.5485 20.9025 15.4023 23.2414 17.589 25.245C19.838 27.18 21.622 27.596 22.389 27.145C23.189 26.68 23.779 24.782 23.171 21.711C22.5049 18.918 21.4009 16.2479 19.9 13.8C18.5339 11.3372 16.7988 9.0979 14.755 7.16004C12.331 5.00804 10.365 4.52704 9.56404 4.99104C9.31439 5.19392 9.10951 5.44636 8.96235 5.73242C8.81519 6.01849 8.72894 6.33196 8.70904 6.65304C8.55005 7.84112 8.60184 9.04794 8.86205 10.218C9.50235 13.0732 10.5948 15.8077 12.098 18.318L12.097 18.316Z" fill="#00D8FF"></path>
</svg>
